<?xml version="1.0" encoding="UTF-8" standalone="no"?>
<svg width="20px" height="20px" viewBox="0 0 20 20" version="1.1" xmlns="http://www.w3.org/2000/svg" xmlns:xlink="http://www.w3.org/1999/xlink" xmlns:sketch="http://www.bohemiancoding.com/sketch/ns">
    <!-- Generator: Sketch 3.3.2 (12043) - http://www.bohemiancoding.com/sketch -->
    <title>cart_red</title>
    <desc>Created with Sketch.</desc>
    <defs></defs>
    <g id="Page-1" stroke="none" stroke-width="1" fill="none" fill-rule="evenodd" sketch:type="MSPage">
        <g id="Artboard-14" sketch:type="MSArtboardGroup" transform="translate(-370.000000, -106.000000)" fill="#FF6666">
            <path d="M389.7,110 L373,110 L374,109 L374,119 L373,118 L387,118 L386.042174,118.712652 L388.955969,109 L389.255969,109 L389.786204,109.712652 L389.7,110 L389.7,110 Z M373,109 L390,109 L387,119 L373,119 L373,109 Z M375,123 C375.552285,123 376,122.552285 376,122 C376,121.447715 375.552285,121 375,121 C374.447715,121 374,121.447715 374,122 C374,122.552285 374.447715,123 375,123 Z M375,124 C373.895431,124 373,123.104569 373,122 C373,120.895431 373.895431,120 375,120 C376.104569,120 377,120.895431 377,122 C377,123.104569 376.104569,124 375,124 Z M384,123 C384.552285,123 385,122.552285 385,122 C385,121.447715 384.552285,121 384,121 C383.447715,121 383,121.447715 383,122 C383,122.552285 383.447715,123 384,123 Z M384,124 C382.895431,124 382,123.104569 382,122 C382,120.895431 382.895431,120 384,120 C385.104569,120 386,120.895431 386,122 C386,123.104569 385.104569,124 384,124 Z M370,109 L373,109 L373,110 L370,110 L370,109 Z" id="Shape" sketch:type="MSShapeGroup"></path>
        </g>
    </g>
</svg>